<svg width="45" height="44" viewBox="0 0 45 44" fill="none" xmlns="http://www.w3.org/2000/svg">
<rect x="0.818359" y="0.370605" width="43.5804" height="43.5804" rx="21.7902" fill="#1A212E"/>
<g clip-path="url(#clip0_497_525)">
<path d="M34.8451 25.2125C33.1603 31.9708 26.3152 36.0838 19.5561 34.3985C12.7998 32.7136 8.68683 25.8681 10.3724 19.1104C12.0566 12.3513 18.9016 8.23803 25.6587 9.92291C32.4173 11.6078 36.53 18.454 34.8449 25.2126L34.8451 25.2125H34.8451Z" fill="#F7931A"/>
<path d="M28.1717 20.3634C28.4228 18.6846 27.1447 17.7821 25.3969 17.1801L25.9639 14.906L24.5796 14.5611L24.0276 16.7753C23.6637 16.6845 23.29 16.599 22.9185 16.5142L23.4744 14.2854L22.091 13.9404L21.5237 16.2138C21.2225 16.1452 20.9267 16.0775 20.6397 16.0061L20.6413 15.9989L18.7323 15.5222L18.3641 17.0008C18.3641 17.0008 19.3911 17.2362 19.3695 17.2507C19.9301 17.3906 20.0314 17.7617 20.0146 18.0558L19.3688 20.6466C19.4074 20.6564 19.4574 20.6706 19.5127 20.6928C19.4665 20.6813 19.4173 20.6688 19.3663 20.6566L18.4611 24.2859C18.3926 24.4562 18.2187 24.7118 17.8267 24.6147C17.8406 24.6348 16.8206 24.3636 16.8206 24.3636L16.1333 25.9482L17.9348 26.3973C18.2699 26.4814 18.5983 26.5693 18.9218 26.652L18.3489 28.9522L19.7316 29.2971L20.2989 27.0213C20.6767 27.1239 21.0433 27.2185 21.4021 27.3076L20.8368 29.5727L22.2212 29.9176L22.7939 27.6217C25.1545 28.0685 26.9295 27.8884 27.6766 25.7532C28.2786 24.0342 27.6466 23.0427 26.4047 22.3961C27.3093 22.1875 27.9906 21.5925 28.1722 20.3636L28.1718 20.3633L28.1717 20.3634ZM25.0089 24.7986C24.581 26.5176 21.6867 25.5884 20.7483 25.3553L21.5085 22.308C22.4468 22.5422 25.456 23.0058 25.0089 24.7986H25.0089ZM25.437 20.3385C25.0467 21.9022 22.6377 21.1077 21.8563 20.913L22.5455 18.1492C23.327 18.344 25.8435 18.7075 25.4371 20.3385H25.437Z" fill="white"/>
</g>
<defs>
<clipPath id="clip0_497_525">
<rect width="25.2279" height="25.2308" fill="white" transform="translate(9.99463 9.54541)"/>
</clipPath>
</defs>
</svg>
