<svg width="124" height="20" viewBox="0 0 124 20" fill="none" xmlns="http://www.w3.org/2000/svg">
<path d="M20 0H13.3673L9.99954 3.31636L6.63271 0H0V6.63822L3.33287 9.99954L0 13.3618V20H6.63271L10.0005 16.6836V16.6387L13.3333 20H20V13.3168L16.668 10.0005H16.6662L19.9991 6.63914V0H20ZM3.00986 3.00986H5.649L6.23537 3.58706L6.98968 4.34687V6.98876H4.35054L3.76417 6.41156L3.00986 5.65175V3.00986ZM6.98968 15.6513L6.23537 16.4111L5.649 16.9883H3.00986V14.3464L3.76417 13.5866L4.35054 13.0094H6.98968V15.6513ZM16.9892 14.3473V16.9892H14.3501L13.7637 16.412L13.0094 15.6522V13.0103H15.6485L16.2349 13.5875L16.9892 14.3473ZM16.9892 5.65175L16.2349 6.41156L15.6485 6.98876H13.0094V4.34687L13.7637 3.58706L14.3501 3.00986H16.9892V5.65175Z" fill="white"/>
<path d="M35.1958 11.6912C35.7421 11.9714 36.1819 12.3746 36.5142 12.8984C36.8464 13.4234 37.0132 14.0099 37.0132 14.6603V16.344C37.0132 16.8016 36.9245 17.2379 36.7471 17.6518C36.5697 18.0656 36.3297 18.4239 36.027 18.7266C35.7243 19.0293 35.3696 19.2693 34.964 19.4467C34.5573 19.624 34.1186 19.7127 33.6456 19.7127H26.667V4.20294H33.1585C33.6314 4.20294 34.0701 4.29162 34.4769 4.46899C34.8824 4.64635 35.2372 4.88993 35.5399 5.19972C35.8426 5.50951 36.0826 5.86779 36.26 6.27454C36.4373 6.68129 36.526 7.11997 36.526 7.59294V9.01066C36.526 9.55693 36.4042 10.063 36.1606 10.5289C35.9171 10.9936 35.5954 11.3814 35.197 11.6924L35.1958 11.6912ZM30.1445 10.2073H31.8058C32.1451 10.2073 32.4407 10.1079 32.6914 9.90811C32.9421 9.70828 33.0686 9.4316 33.0686 9.07687V8.38989C33.0686 8.05053 32.9433 7.79158 32.6914 7.61422C32.4396 7.43686 32.1451 7.34818 31.8058 7.34818H30.1445V10.2061V10.2073ZM33.5569 14.6165C33.5569 14.2618 33.4352 13.9626 33.1916 13.719C32.948 13.4755 32.6488 13.3537 32.2941 13.3537H30.1445V16.5663H32.2941C32.6488 16.5663 32.948 16.4445 33.1916 16.2009C33.4352 15.9574 33.5569 15.6582 33.5569 15.3035V14.6165Z" fill="white"/>
<path d="M43.0831 17.2083V19.7789C42.1525 19.8084 41.3804 19.7895 40.7679 19.7233C40.1554 19.6571 39.6635 19.5093 39.2946 19.2799C38.9257 19.0505 38.6632 18.7183 38.5083 18.2831C38.3534 17.848 38.2754 17.2603 38.2754 16.5213V2.62909H41.5992V15.7457C41.5992 16.0555 41.6287 16.3038 41.6878 16.4882C41.747 16.6727 41.8392 16.8134 41.9645 16.9092C42.0899 17.0049 42.2448 17.0723 42.4304 17.109C42.6149 17.1456 42.8324 17.1787 43.0843 17.2083H43.0831Z" fill="white"/>
<path d="M49.9513 8.34607C50.4243 8.34607 50.863 8.43475 51.2697 8.61211C51.6753 8.78948 52.03 9.02951 52.3327 9.33221C52.6354 9.6349 52.8754 9.98963 53.0528 10.3952C53.2302 10.802 53.3188 11.2406 53.3188 11.7136V16.3664C53.3188 16.824 53.2302 17.2603 53.0528 17.6742C52.8754 18.088 52.6354 18.4463 52.3327 18.749C52.03 19.0517 51.6753 19.2917 51.2697 19.4691C50.863 19.6464 50.4243 19.7351 49.9513 19.7351H47.2921C46.8345 19.7351 46.3981 19.6464 45.9843 19.4691C45.5705 19.2917 45.2122 19.0517 44.9095 18.749C44.6068 18.4463 44.3667 18.088 44.1894 17.6742C44.012 17.2603 43.9233 16.8252 43.9233 16.3664V11.7136C43.9233 11.2406 44.012 10.802 44.1894 10.3952C44.3667 9.98963 44.6068 9.6349 44.9095 9.33221C45.2122 9.02951 45.5705 8.78948 45.9843 8.61211C46.3981 8.43475 46.8333 8.34607 47.2921 8.34607H49.9513ZM49.9951 12.423C49.9951 12.0979 49.8804 11.8212 49.6522 11.5918C49.4228 11.3624 49.1461 11.2489 48.8209 11.2489H48.4224C48.0973 11.2489 47.8241 11.3636 47.603 11.5918C47.3819 11.8212 47.2708 12.0979 47.2708 12.423V15.6581C47.2708 15.9833 47.3819 16.26 47.603 16.4894C47.8241 16.7188 48.0973 16.8323 48.4224 16.8323H48.8209C49.1461 16.8323 49.4228 16.7176 49.6522 16.4894C49.8804 16.26 49.9951 15.9833 49.9951 15.6581V12.423Z" fill="white"/>
<path d="M62.4692 16.8099V19.7127H57.9713C57.5137 19.7127 57.0773 19.624 56.6635 19.4467C56.2496 19.2693 55.8914 19.0293 55.5887 18.7266C55.286 18.4239 55.0459 18.0656 54.8686 17.6518C54.6912 17.2379 54.6025 16.8028 54.6025 16.344V11.6912C54.6025 11.2182 54.6912 10.7796 54.8686 10.3728C55.0459 9.96605 55.286 9.61251 55.5887 9.30981C55.8914 9.00711 56.2496 8.76708 56.6635 8.58971C57.0773 8.41235 57.5125 8.32367 57.9713 8.32367H62.358V11.2265H59.1005C58.7753 11.2265 58.5022 11.3412 58.281 11.5694C58.0599 11.7988 57.9488 12.0684 57.9488 12.3782V15.6346C57.9488 15.9597 58.0599 16.2364 58.281 16.4658C58.5022 16.6952 58.7753 16.8087 59.1005 16.8087H62.468L62.4692 16.8099Z" fill="white"/>
<path d="M73.5039 19.7115H70.0477L69.1834 16.0117C69.0651 15.657 68.9102 15.3874 68.7175 15.2029C68.5248 15.0185 68.2599 14.9262 67.9194 14.9262H67.0775V19.7115H63.7324V2.69531H67.0775V11.7798H67.6309C67.9702 11.7798 68.2363 11.6912 68.429 11.5138C68.6205 11.3364 68.7754 11.0704 68.8949 10.7157L69.4707 8.32244H72.9269L72.3511 11.3802C72.2624 11.794 72.1217 12.1487 71.9301 12.4432C71.7374 12.7388 71.5092 12.9894 71.2431 13.1964C71.5825 13.4329 71.8746 13.732 72.1181 14.0938C72.3617 14.4556 72.5355 14.873 72.6384 15.346L73.5027 19.7103L73.5039 19.7115Z" fill="white"/>
<path d="M74.6763 4.20294H82.7853V7.34936H78.1549V11.4926H80.9029V14.639H78.1549V19.7127H74.6763V4.20294Z" fill="white"/>
<path d="M92.0265 8.32367V19.2244C90.3569 19.7411 88.8139 20.0001 87.3962 20.0001C86.7316 20.0001 86.1227 19.9409 85.5681 19.8227C85.0148 19.7044 84.5383 19.52 84.1386 19.2693C83.7401 19.0186 83.4256 18.7041 83.1974 18.3281C82.968 17.9509 82.8545 17.5051 82.8545 16.9873V8.32367H86.1996V15.8344C86.1996 16.2482 86.3474 16.5805 86.643 16.8312C86.9386 17.083 87.3004 17.2084 87.7284 17.2084C88.024 17.2084 88.3492 17.1268 88.7027 16.9648V8.32367H92.0265Z" fill="white"/>
<path d="M93.7102 8.83322C95.3797 8.31651 96.9228 8.05756 98.3405 8.05756C99.005 8.05756 99.614 8.11668 100.169 8.23492C100.722 8.35316 101.198 8.53762 101.598 8.78829C101.997 9.04015 102.311 9.35349 102.539 9.7295C102.767 10.1067 102.882 10.5536 102.882 11.0704V19.7339H99.5584V12.2232C99.5584 11.8094 99.4106 11.4771 99.115 11.2264C98.8194 10.9758 98.4576 10.8492 98.0295 10.8492C97.7339 10.8492 97.4088 10.9308 97.054 11.0928V19.7339H93.709V8.83322H93.7102Z" fill="white"/>
<path d="M113.495 2.69527V19.7115H107.691C107.233 19.7115 106.797 19.6228 106.383 19.4454C105.969 19.2681 105.611 19.028 105.308 18.7253C105.006 18.4226 104.766 18.0644 104.588 17.6505C104.411 17.2367 104.322 16.8015 104.322 16.3428V11.6899C104.322 10.9367 104.451 10.3278 104.71 9.86191C104.968 9.39722 105.298 9.03067 105.696 8.76463C106.095 8.49859 106.535 8.32122 107.015 8.23254C107.495 8.14386 107.956 8.10011 108.399 8.10011C108.784 8.10011 109.134 8.12258 109.452 8.16633C109.768 8.21007 110.009 8.24791 110.172 8.27747V2.69409H113.495V2.69527ZM110.172 11.1366C110.039 11.0928 109.873 11.0479 109.673 11.0041C109.473 10.9604 109.262 10.9379 109.041 10.9379C108.701 10.9379 108.387 11.0337 108.1 11.2264C107.812 11.4192 107.669 11.8023 107.669 12.3781V15.6345C107.669 15.9596 107.78 16.2363 108.001 16.4657C108.222 16.6951 108.495 16.8086 108.82 16.8086H110.172V11.1366Z" fill="white"/>
<path d="M118.369 12.0684C118.369 12.2457 118.487 12.3829 118.724 12.4787C118.96 12.5744 119.256 12.6749 119.611 12.7778C119.965 12.8819 120.35 12.9989 120.762 13.1325C121.176 13.265 121.56 13.4542 121.914 13.6977C122.268 13.9413 122.564 14.2665 122.801 14.6732C123.037 15.08 123.156 15.5932 123.156 16.2127V16.6774C123.156 17.135 123.067 17.5524 122.889 17.9296C122.712 18.3068 122.469 18.6272 122.159 18.8933C121.849 19.1593 121.491 19.3627 121.084 19.5022C120.677 19.6429 120.239 19.7127 119.766 19.7127H114.824V16.8099H118.192C118.354 16.8099 118.528 16.7992 118.712 16.7768C118.896 16.7543 119.07 16.7105 119.232 16.6443C119.394 16.5781 119.531 16.493 119.643 16.3889C119.754 16.2861 119.809 16.1524 119.809 15.9904V15.9018C119.809 15.7398 119.691 15.6062 119.455 15.5033C119.218 15.4004 118.922 15.2928 118.568 15.1817C118.213 15.0705 117.832 14.9416 117.427 14.7938C117.02 14.646 116.64 14.4427 116.286 14.1849C115.931 13.9271 115.635 13.602 115.399 13.2094C115.162 12.818 115.044 12.3273 115.044 11.7361V11.4476C115.044 10.9746 115.133 10.5501 115.31 10.1741C115.488 9.79694 115.728 9.46941 116.03 9.18799C116.333 8.90776 116.691 8.69374 117.105 8.54594C117.519 8.39814 117.954 8.32483 118.413 8.32483H122.467V11.2277H119.543C119.218 11.2277 118.945 11.2643 118.724 11.3388C118.503 11.4133 118.392 11.612 118.392 11.9371L118.369 12.0695V12.0684Z" fill="white"/>
</svg>
