<svg width="62" height="18" viewBox="0 0 62 18" fill="none" xmlns="http://www.w3.org/2000/svg">
<path d="M22.2631 4.00288V9.27516H17.0311V4.68369C17.0311 4.30634 16.7253 4.00024 16.3484 4.00024H14.5771V16.6215C14.5771 16.9989 14.8829 17.305 15.2598 17.305H17.0311V11.4179H22.2658V16.6189C22.2605 16.9962 22.561 17.3076 22.9379 17.3129H24.7197V4.68369C24.7197 4.30634 24.4139 4.00024 24.037 4.00024H22.2631V4.00288ZM32.6535 7.30136V13.6265C32.6587 14.2018 32.3582 14.7374 31.8627 15.033C30.4763 15.8352 29.0398 14.8298 29.0398 13.5104V7.9848C29.0398 7.60745 28.734 7.30136 28.3571 7.30136H26.5858V13.7373C26.5911 15.8114 28.2675 17.4897 30.3392 17.5002H31.3461C33.4205 17.495 35.1021 15.8114 35.1074 13.7347V7.9848C35.1074 7.60745 34.8016 7.30136 34.4247 7.30136H32.6535Z" fill="white"/>
<path d="M59.3411 17.4993H61.1482V8.20789C61.1482 7.81664 60.8363 7.49927 60.4517 7.49927H58.6445V16.7852C58.6419 17.1764 58.9511 17.4965 59.3357 17.4993H59.3411Z" fill="white"/>
<path d="M60.9676 5.74604C61.1877 5.21539 60.9354 4.60704 60.4039 4.38723C59.8725 4.16742 59.2633 4.4194 59.0431 4.95005C58.823 5.4807 59.0753 6.08908 59.6068 6.30888C60.1382 6.52869 60.7475 6.27668 60.9676 5.74604Z" fill="white"/>
<path d="M41.3664 7.49927C38.7504 7.49927 36.6094 9.3017 36.6094 11.823V13.1858C36.6094 15.7072 38.7504 17.4993 41.3664 17.4993C43.9823 17.4993 46.1234 15.7072 46.1234 13.1858V11.823C46.1261 9.3017 43.985 7.49927 41.3664 7.49927ZM43.6148 13.3488C43.6148 14.5409 42.6033 15.3348 41.3637 15.3348C40.1241 15.3348 39.1153 14.5409 39.1153 13.3488V11.6472C39.1153 10.455 40.1268 9.66115 41.3637 9.66115C42.6006 9.66115 43.6148 10.455 43.6148 11.6472V13.3488Z" fill="white"/>
<path d="M52.3857 7.2861C51.6022 7.28081 50.8295 7.45514 50.1239 7.7906V4.68436C50.1239 4.30664 49.8126 4.00024 49.429 4.00024H47.626V13.0944C47.626 15.6698 49.767 17.5002 52.383 17.5002C54.9989 17.5002 57.14 15.6698 57.14 13.0944V11.7025C57.1427 9.12712 55.007 7.2861 52.3857 7.2861ZM54.6367 13.2609C54.6367 14.4785 53.6252 15.2894 52.3857 15.2894C51.1488 15.2894 50.1373 14.4785 50.1373 13.2609V11.5228C50.1373 10.3052 51.1488 9.49427 52.3857 9.49427C53.6225 9.49427 54.6367 10.3052 54.6367 11.5228V13.2609Z" fill="white"/>
<path d="M8.23151 5.53651C8.23151 2.95391 6.9714 0.729723 6.01168 0.00781515C6.01168 0.00781515 5.93786 -0.0328557 5.9455 0.0713634C5.86658 5.06117 3.31326 6.41347 1.9106 8.23349C-1.32751 12.4378 1.68148 17.0464 4.75157 17.8979C6.46227 18.3758 4.35445 17.054 4.08206 14.2655C3.74857 10.9 8.23151 8.32755 8.23151 5.53651Z" fill="white"/>
<path d="M9.7032 7.23717C9.68284 7.22446 9.65483 7.21429 9.63701 7.24734C9.58355 7.8752 8.94204 9.21733 8.12743 10.4527C5.36537 14.6367 6.9386 16.655 7.82449 17.7404C8.33872 18.3683 7.82449 17.7404 9.10751 17.0973C10.6935 16.1365 11.7219 14.474 11.8747 12.6286C12.1267 9.65454 10.3396 7.78114 9.7032 7.23717Z" fill="white"/>
</svg>
