<svg width="115" height="18" viewBox="0 0 115 18" fill="none" xmlns="http://www.w3.org/2000/svg">
<path d="M10.6952 0.0251051C12.6814 -0.108388 14.7059 0.292086 16.482 1.18839C19.1176 2.48518 21.2185 4.81177 22.1925 7.55791C22.6317 8.77841 22.8609 10.0561 22.8609 11.3529V16.1396C22.8609 16.3303 22.8609 16.5401 22.8227 16.7308C22.7081 17.2075 22.3644 17.6461 21.906 17.8559C21.5813 18.0085 21.2185 18.0275 20.8938 17.9703C20.168 17.8368 19.5951 17.1503 19.5951 16.4066C19.5951 14.9191 19.5951 13.4316 19.5951 11.9441C19.6142 11.5245 19.6142 11.0669 19.385 10.7045C19.0221 10.018 18.1054 9.69379 17.3988 9.97984C16.7876 10.1896 16.3483 10.8189 16.3292 11.4673C16.3292 12.9739 16.3292 14.4805 16.3292 15.987C16.3292 16.2731 16.3483 16.5591 16.2528 16.8261C16.1001 17.3601 15.6608 17.7796 15.126 17.9322C14.4194 18.1229 13.6172 17.8178 13.2735 17.1694C13.0252 16.788 13.0443 16.3112 13.0634 15.8726C13.0634 14.366 13.0634 12.8785 13.0634 11.372C13.0443 10.6092 12.414 9.92263 11.6692 9.82728C11.1726 9.751 10.657 9.92263 10.2941 10.2659C9.96943 10.571 9.79754 11.0096 9.79754 11.4483V15.8154C9.79754 16.1777 9.83574 16.5591 9.70205 16.9024C9.49197 17.5317 8.86171 17.9894 8.19327 17.9703C7.50572 18.0085 6.83727 17.5317 6.62719 16.9024C6.5126 16.5782 6.53169 16.254 6.53169 15.9107C6.53169 14.4042 6.53169 12.8976 6.53169 11.3911C6.53169 10.6473 5.93964 9.96077 5.2139 9.82728C4.54545 9.69379 3.8197 10.018 3.47593 10.6282C3.34224 10.8762 3.26585 11.1622 3.26585 11.4483V16.3493C3.26585 16.8261 3.05576 17.3029 2.69289 17.608C2.13903 18.0848 1.2414 18.1229 0.668448 17.6843C0.248281 17.3982 0 16.9024 0 16.3875V11.4292C0 9.5603 0.477463 7.6914 1.37509 6.03228C2.10084 4.67828 3.11306 3.47684 4.31627 2.52332C6.09243 1.03583 8.36515 0.158598 10.6952 0.0251051Z" fill="white"/>
<path d="M55.3281 5.76549H52.8453C52.9407 4.03009 53.3036 2.46632 54.8888 1.47466C56.474 0.502069 58.2119 0.273224 60.0263 0.425787C61.0003 0.502069 61.9743 0.711845 62.872 1.13139C64.4572 1.85607 65.2402 3.09564 65.2402 4.83105C65.2402 7.90138 65.2402 10.9717 65.2402 14.042C65.2402 15.1672 65.4694 15.377 66.5962 15.2626C66.7108 15.2435 66.8445 15.2244 66.9591 15.2053C66.9782 15.2625 66.9782 15.3198 66.9782 15.3579V17.2268C66.0805 17.5319 65.1638 17.6273 64.2662 17.3794C63.5977 17.1887 63.1776 16.7119 62.9484 16.0826C62.8338 15.7584 62.7574 15.4151 62.6619 15.0528C62.5664 15.1672 62.49 15.2626 62.3945 15.3579C60.4274 17.3412 58.0973 18.1803 55.3472 17.4747C53.3991 16.9789 52.0622 15.2053 52.0049 13.1839C51.9858 12.5355 52.0431 11.8871 52.1959 11.2578C52.5588 9.80842 53.5901 8.93118 54.8888 8.34C55.8055 7.92045 56.7986 7.80603 57.7918 7.67253C58.9568 7.51997 60.1027 7.38648 61.2677 7.21484C62.0507 7.10042 62.4518 6.68088 62.5664 5.89899C62.8147 4.31615 62.108 3.26728 60.5802 2.88587C59.6634 2.65703 58.7276 2.61889 57.7918 2.79052C56.4167 3.03843 55.6527 3.82032 55.3854 5.17432C55.4045 5.36502 55.3663 5.55572 55.3281 5.76549ZM62.6428 8.81676C61.4969 9.42701 60.3892 9.57958 59.2624 9.75121C58.3265 9.90377 57.3716 10.0373 56.4549 10.3233C55.2517 10.7238 54.6978 11.7155 54.8124 13.0504C54.9079 14.1565 55.6527 15.0528 56.8559 15.2435C58.7085 15.5486 60.351 15.0337 61.6497 13.6606C62.0316 13.2602 62.3372 12.688 62.4136 12.1541C62.5855 11.0861 62.5664 9.99912 62.6428 8.81676ZM98.0323 12.0206C97.975 12.2876 97.9369 12.5164 97.8796 12.7262C96.81 15.9872 94.6328 17.3794 91.9972 17.6845C87.4327 18.1803 84.8162 15.2053 84.1477 12.0397C83.613 9.52236 83.6894 7.02414 84.7971 4.65941C85.8475 2.42818 87.5282 0.959758 90.0301 0.521139C93.0285 -0.0128316 97.2684 1.47466 97.9751 6.1469C98.166 7.34834 98.2042 8.58792 98.3188 9.84656H86.7069C86.8024 11.5629 87.0698 13.1648 88.3303 14.4044C88.846 14.9193 89.5144 15.1672 90.2402 15.3007C92.5893 15.7202 94.5373 14.5951 95.3013 12.3257C95.3777 12.0778 95.4922 12.0015 95.7405 12.0206C96.4854 12.0206 97.2302 12.0206 98.0323 12.0206ZM86.8024 7.6344H95.4922C95.3968 6.62367 95.2249 5.68921 94.7474 4.81198C94.289 3.97288 93.6206 3.36263 92.7039 3.0575C89.7054 2.0277 86.6114 4.4115 86.8024 7.6344ZM104.278 17.1314H101.642V0.769058H104.144V3.0575C104.335 2.84773 104.449 2.71424 104.564 2.58074C106.359 0.540213 108.613 0.00623989 111.172 0.635563C112.948 1.07418 113.941 2.33283 114.285 4.0873C114.419 4.81198 114.514 5.55572 114.514 6.2804C114.533 9.78935 114.533 13.2983 114.533 16.8073C114.533 16.9026 114.514 16.998 114.514 17.1124H111.821V16.6738C111.821 13.3937 111.841 10.1135 111.802 6.83344C111.802 6.10876 111.688 5.36502 111.478 4.65941C111.134 3.51519 110.217 2.90494 109.014 2.84773C106.818 2.77145 105.08 3.93474 104.545 5.87992C104.354 6.58552 104.297 7.32927 104.297 8.07301C104.278 10.9526 104.278 13.8132 104.278 16.6547V17.1314ZM69.5374 0.769058H72.0775V7.71068C72.2302 7.55811 72.3257 7.48183 72.4212 7.38648C74.503 5.26966 76.5847 3.13378 78.6664 1.01697C78.8383 0.826266 79.0102 0.749986 79.2776 0.749986C80.2516 0.769056 81.2448 0.749986 82.3143 0.749986C82.1615 0.902549 82.0851 0.997899 81.9896 1.09325C80.1561 2.92401 78.3418 4.77384 76.4892 6.58552C76.2791 6.7953 76.2791 6.92879 76.4128 7.15764C78.4182 10.3424 80.4044 13.5271 82.3907 16.7119C82.4671 16.8263 82.5243 16.9407 82.6198 17.1124C82.4862 17.1314 82.3907 17.1314 82.2761 17.1314C81.3593 17.1314 80.4617 17.1314 79.545 17.1314C79.2967 17.1314 79.1821 17.0361 79.0484 16.8454C77.5205 14.29 75.9927 11.7345 74.4648 9.16003C74.3884 9.0456 74.3311 8.93118 74.2356 8.79769C73.5289 9.50329 72.8414 10.1708 72.1539 10.8764C72.0584 10.9717 72.0393 11.1433 72.0393 11.2768C72.0393 13.0695 72.0393 14.8621 72.0393 16.6547V17.1124C71.5427 17.1124 71.0461 17.1124 70.5687 17.1124C70.2249 17.1124 69.7474 17.2077 69.5565 17.017C69.3846 16.8645 69.4801 16.3686 69.4801 16.0254V1.20767C69.5374 1.11232 69.5374 0.959761 69.5374 0.769058ZM40.2211 0.749986C38.1585 2.79052 36.1531 4.79291 34.1287 6.7953C36.3059 10.2661 38.4259 13.6606 40.584 17.1314C40.4121 17.1314 40.2975 17.1505 40.1829 17.1505C39.3044 17.1505 38.4068 17.1505 37.5282 17.1505C37.28 17.1505 37.1272 17.0552 36.9935 16.8454C35.4656 14.29 33.9377 11.7345 32.4098 9.16003C32.3525 9.0456 32.2762 8.95025 32.1807 8.79769C31.7987 9.19817 31.4549 9.63679 31.0347 9.94191C30.1753 10.5903 29.927 11.3913 29.9843 12.4592C30.0798 13.8513 30.0034 15.2625 30.0034 16.6547V17.1124H27.4824V0.769058H30.0034V7.59625C30.0607 7.63439 30.118 7.67254 30.1562 7.71068C30.2326 7.59625 30.2708 7.46276 30.3472 7.36741C32.4098 5.2506 34.4916 3.15285 36.5542 1.01697C36.7452 0.826266 36.9171 0.730916 37.2036 0.749986C38.063 0.769056 38.9224 0.749986 39.7819 0.749986C39.9156 0.749986 40.0302 0.749986 40.2211 0.749986ZM45.2631 3.47705C46.5427 1.60815 47.8987 0.0443842 50.4197 0.502073V3.30542C49.7513 3.34356 49.0828 3.32449 48.4526 3.45798C46.9056 3.78218 45.7024 5.19338 45.4541 6.90972C45.4159 7.25298 45.3777 7.59626 45.3777 7.93952C45.3777 10.8573 45.3777 13.7751 45.3777 16.6928V17.1505H42.7803V0.807195H45.2631C45.2631 1.66536 45.2631 2.52353 45.2631 3.47705Z" fill="white"/>
</svg>
