<svg width="24" height="25" viewBox="0 0 24 25" fill="none" xmlns="http://www.w3.org/2000/svg">
<g id="ri:linkedin-fill">
<path id="Vector" d="M6.93994 5.9009C6.93968 6.43134 6.72871 6.93994 6.35345 7.31482C5.97819 7.68971 5.46937 7.90017 4.93894 7.8999C4.40851 7.89964 3.89991 7.68867 3.52502 7.31341C3.15014 6.93815 2.93968 6.42934 2.93994 5.8989C2.94021 5.36847 3.15117 4.85987 3.52644 4.48498C3.9017 4.1101 4.41051 3.89964 4.94094 3.8999C5.47137 3.90017 5.97998 4.11114 6.35486 4.4864C6.72975 4.86166 6.94021 5.37047 6.93994 5.9009ZM6.99994 9.3809H2.99994V21.9009H6.99994V9.3809ZM13.3199 9.3809H9.33994V21.9009H13.2799V15.3309C13.2799 11.6709 18.0499 11.3309 18.0499 15.3309V21.9009H21.9999V13.9709C21.9999 7.8009 14.9399 8.0309 13.2799 11.0609L13.3199 9.3809Z" fill="#FAFFFD"/>
</g>
</svg>
