<svg width="24" height="25" viewBox="0 0 24 25" fill="none" xmlns="http://www.w3.org/2000/svg">
<g id="phone-call-01">
<path id="Icon" d="M14.0497 6.09668C15.0264 6.28725 15.924 6.76494 16.6277 7.46862C17.3314 8.17229 17.8091 9.06994 17.9997 10.0467M14.0497 2.09668C16.0789 2.32212 17.9713 3.23085 19.4159 4.67369C20.8606 6.11652 21.7717 8.00769 21.9997 10.0367M10.2266 13.9597C9.02506 12.7582 8.07627 11.3995 7.38028 9.94991C7.32041 9.82522 7.29048 9.76287 7.26748 9.68398C7.18576 9.40363 7.24446 9.05937 7.41447 8.82194C7.46231 8.75513 7.51947 8.69797 7.63378 8.58366C7.98338 8.23405 8.15819 8.05925 8.27247 7.88347C8.70347 7.22058 8.70347 6.366 8.27247 5.70311C8.15819 5.52733 7.98338 5.35253 7.63378 5.00292L7.43891 4.80805C6.90747 4.27661 6.64174 4.01089 6.35636 3.86655C5.7888 3.57948 5.11854 3.57948 4.55098 3.86655C4.2656 4.01089 3.99987 4.27661 3.46843 4.80805L3.3108 4.96569C2.78117 5.49531 2.51636 5.76012 2.31411 6.12016C2.08969 6.51966 1.92833 7.14015 1.9297 7.59838C1.93092 8.01132 2.01103 8.29355 2.17124 8.85799C3.03221 11.8914 4.65668 14.7537 7.04466 17.1417C9.43264 19.5297 12.295 21.1542 15.3284 22.0152C15.8928 22.1754 16.1751 22.2555 16.588 22.2567C17.0462 22.2581 17.6667 22.0967 18.0662 21.8723C18.4263 21.67 18.6911 21.4052 19.2207 20.8756L19.3783 20.718C19.9098 20.1865 20.1755 19.9208 20.3198 19.6354C20.6069 19.0679 20.6069 18.3976 20.3198 17.83C20.1755 17.5446 19.9098 17.2789 19.3783 16.7475L19.1835 16.5526C18.8339 16.203 18.6591 16.0282 18.4833 15.9139C17.8204 15.4829 16.9658 15.4829 16.3029 15.9139C16.1271 16.0282 15.9523 16.203 15.6027 16.5526C15.4884 16.6669 15.4313 16.7241 15.3644 16.7719C15.127 16.9419 14.7828 17.0006 14.5024 16.9189C14.4235 16.8959 14.3612 16.866 14.2365 16.8061C12.7869 16.1101 11.4282 15.1613 10.2266 13.9597Z" stroke="white" stroke-width="2" stroke-linecap="round" stroke-linejoin="round"/>
</g>
</svg>
