<svg width="37" height="36" viewBox="0 0 37 36" fill="none" xmlns="http://www.w3.org/2000/svg">
<path d="M4.13018 19.0698C3.9259 18.7463 3.82376 18.5846 3.76659 18.3351C3.72364 18.1477 3.72364 17.8523 3.76659 17.6649C3.82376 17.4154 3.9259 17.2537 4.13018 16.9302C5.81829 14.2573 10.8431 7.5 18.5006 7.5C26.1581 7.5 31.1829 14.2573 32.871 16.9302C33.0753 17.2537 33.1774 17.4154 33.2346 17.6649C33.2776 17.8523 33.2776 18.1477 33.2346 18.3351C33.1774 18.5846 33.0753 18.7463 32.871 19.0698C31.1829 21.7427 26.1581 28.5 18.5006 28.5C10.8431 28.5 5.81829 21.7427 4.13018 19.0698Z" stroke="white" stroke-width="2.5" stroke-linecap="round" stroke-linejoin="round"/>
<path d="M18.5006 22.5C20.9859 22.5 23.0006 20.4853 23.0006 18C23.0006 15.5147 20.9859 13.5 18.5006 13.5C16.0153 13.5 14.0006 15.5147 14.0006 18C14.0006 20.4853 16.0153 22.5 18.5006 22.5Z" stroke="white" stroke-width="2.5" stroke-linecap="round" stroke-linejoin="round"/>
</svg>
