<svg width="24" height="25" viewBox="0 0 24 25" fill="none" xmlns="http://www.w3.org/2000/svg">
<g id="wallet-02">
<path id="Icon" d="M16 8.09651V4.59716C16 3.76542 16 3.34955 15.8248 3.09398C15.6717 2.87069 15.4346 2.719 15.1678 2.67359C14.8623 2.62161 14.4847 2.79588 13.7295 3.14443L4.85901 7.2385C4.18551 7.54935 3.84875 7.70478 3.60211 7.94583C3.38406 8.15893 3.21762 8.41906 3.1155 8.70634C3 9.0313 3 9.40219 3 10.144V15.0965M16.5 14.5965H16.51M3 11.2965L3 17.8965C3 19.0166 3 19.5767 3.21799 20.0045C3.40973 20.3808 3.71569 20.6868 4.09202 20.8785C4.51984 21.0965 5.07989 21.0965 6.2 21.0965H17.8C18.9201 21.0965 19.4802 21.0965 19.908 20.8785C20.2843 20.6868 20.5903 20.3808 20.782 20.0045C21 19.5767 21 19.0166 21 17.8965V11.2965C21 10.1764 21 9.61635 20.782 9.18853C20.5903 8.8122 20.2843 8.50624 19.908 8.3145C19.4802 8.09651 18.9201 8.09651 17.8 8.09651L6.2 8.09651C5.0799 8.09651 4.51984 8.09651 4.09202 8.31449C3.7157 8.50624 3.40973 8.8122 3.21799 9.18853C3 9.61635 3 10.1764 3 11.2965ZM17 14.5965C17 14.8726 16.7761 15.0965 16.5 15.0965C16.2239 15.0965 16 14.8726 16 14.5965C16 14.3204 16.2239 14.0965 16.5 14.0965C16.7761 14.0965 17 14.3204 17 14.5965Z" stroke="white" stroke-width="2" stroke-linecap="round" stroke-linejoin="round"/>
</g>
</svg>
