<svg width="44" height="44" viewBox="0 0 44 44" fill="none" xmlns="http://www.w3.org/2000/svg">
<path d="M20.6847 6.331C21.1073 5.47494 21.3185 5.04692 21.6054 4.91016C21.8549 4.79118 22.1448 4.79118 22.3944 4.91016C22.6812 5.04692 22.8925 5.47494 23.315 6.331L27.3239 14.4526C27.4487 14.7053 27.5111 14.8317 27.6022 14.9298C27.6829 15.0167 27.7797 15.0871 27.8872 15.1371C28.0087 15.1935 28.1481 15.2139 28.427 15.2547L37.3943 16.5654C38.3386 16.7034 38.8108 16.7724 39.0293 17.0031C39.2194 17.2037 39.3088 17.4795 39.2726 17.7535C39.231 18.0685 38.8892 18.4014 38.2055 19.0673L31.7192 25.385C31.517 25.582 31.4159 25.6804 31.3506 25.7976C31.2929 25.9013 31.2558 26.0153 31.2415 26.1332C31.2254 26.2663 31.2492 26.4054 31.2969 26.6836L32.8274 35.6071C32.9889 36.5483 33.0696 37.0189 32.9179 37.2982C32.7859 37.5411 32.5513 37.7116 32.2795 37.762C31.967 37.8199 31.5444 37.5976 30.6992 37.1532L22.6825 32.9373C22.4327 32.8059 22.3079 32.7402 22.1763 32.7144C22.0598 32.6916 21.94 32.6916 21.8235 32.7144C21.6919 32.7402 21.567 32.8059 21.3172 32.9373L13.3005 37.1532C12.4553 37.5976 12.0328 37.8199 11.7203 37.762C11.4484 37.7116 11.2138 37.5411 11.0819 37.2982C10.9302 37.0189 11.0109 36.5483 11.1723 35.6071L12.7028 26.6836C12.7505 26.4054 12.7744 26.2663 12.7582 26.1332C12.7439 26.0153 12.7069 25.9013 12.6491 25.7976C12.5839 25.6804 12.4828 25.582 12.2806 25.385L5.7942 19.0673C5.11055 18.4014 4.76873 18.0685 4.72714 17.7535C4.69095 17.4795 4.78035 17.2037 4.97046 17.0031C5.18897 16.7724 5.66112 16.7034 6.60542 16.5654L15.5727 15.2547C15.8516 15.2139 15.9911 15.1935 16.1125 15.1371C16.22 15.0871 16.3168 15.0167 16.3975 14.9298C16.4887 14.8317 16.551 14.7053 16.6758 14.4526L20.6847 6.331Z" stroke="white" stroke-width="2.5" stroke-linecap="round" stroke-linejoin="round"/>
</svg>
