<svg width="44" height="44" viewBox="0 0 44 44" fill="none" xmlns="http://www.w3.org/2000/svg">
<path d="M4.58437 23.8333H15.5844M28.4177 23.8333H39.4177M22.001 12.8333V38.5M22.001 12.8333C24.5323 12.8333 26.5844 10.7813 26.5844 8.24999M22.001 12.8333C19.4697 12.8333 17.4177 10.7813 17.4177 8.24999M7.33437 38.5L36.6677 38.5M7.33437 8.25L17.4177 8.24999M17.4177 8.24999C17.4177 5.71869 19.4697 3.66666 22.001 3.66666C24.5323 3.66666 26.5844 5.71868 26.5844 8.24999M26.5844 8.24999L36.6677 8.24999M16.2818 26.2833C15.5472 29.0961 13.0509 31.1667 10.0844 31.1667C7.11784 31.1667 4.6215 29.0961 3.8869 26.2833C3.82687 26.0535 3.79686 25.9386 3.79397 25.4794C3.79219 25.198 3.8968 24.549 3.98691 24.2823C4.13393 23.8473 4.29306 23.6018 4.61134 23.1108L10.0844 14.6667L15.5574 23.1108C15.8757 23.6018 16.0348 23.8473 16.1818 24.2823C16.2719 24.549 16.3765 25.198 16.3748 25.4794C16.3719 25.9386 16.3419 26.0535 16.2818 26.2833ZM40.1152 26.2833C39.3806 29.0961 36.8842 31.1667 33.9177 31.1667C30.9512 31.1667 28.4548 29.0961 27.7202 26.2833C27.6602 26.0535 27.6302 25.9386 27.6273 25.4794C27.6255 25.198 27.7301 24.549 27.8202 24.2823C27.9673 23.8473 28.1264 23.6018 28.4447 23.1108L33.9177 14.6667L39.3907 23.1108C39.709 23.6018 39.8681 23.8473 40.0152 24.2823C40.1053 24.549 40.2099 25.198 40.2081 25.4794C40.2052 25.9386 40.1752 26.0535 40.1152 26.2833Z" stroke="white" stroke-width="2.5" stroke-linecap="round" stroke-linejoin="round"/>
</svg>
