<svg width="59" height="59" viewBox="0 0 59 59" fill="none" xmlns="http://www.w3.org/2000/svg">
<g filter="url(#filter0_dddddd_500_274)">
<circle cx="29.2143" cy="29.5219" r="1.46429" fill="#ED7913"/>
</g>
<path d="M31.5281 29.5221C31.5281 30.7998 30.4922 31.8357 29.2145 31.8357C27.9367 31.8357 26.9009 30.7998 26.9009 29.5221C26.9009 28.2443 27.9367 27.2085 29.2145 27.2085C30.4922 27.2085 31.5281 28.2443 31.5281 29.5221ZM29.2145 31.8942C30.5246 31.8942 31.5866 30.8322 31.5866 29.5221C31.5866 28.212 30.5246 27.15 29.2145 27.15C27.9044 27.15 26.8423 28.212 26.8423 29.5221C26.8423 30.8322 27.9044 31.8942 29.2145 31.8942ZM32.1138 29.5221C32.1138 31.1233 30.8157 32.4214 29.2145 32.4214C27.6132 32.4214 26.3152 31.1233 26.3152 29.5221C26.3152 27.9209 27.6132 26.6228 29.2145 26.6228C30.8157 26.6228 32.1138 27.9209 32.1138 29.5221ZM29.2145 32.48C30.8481 32.48 32.1723 31.1557 32.1723 29.5221C32.1723 27.8885 30.8481 26.5642 29.2145 26.5642C27.5809 26.5642 26.2566 27.8885 26.2566 29.5221C26.2566 31.1557 27.5809 32.48 29.2145 32.48ZM32.6995 29.5221C32.6995 31.4468 31.1392 33.0071 29.2145 33.0071C27.2898 33.0071 25.7295 31.4468 25.7295 29.5221C25.7295 27.5974 27.2898 26.0371 29.2145 26.0371C31.1392 26.0371 32.6995 27.5974 32.6995 29.5221Z" stroke="#DB7318" stroke-width="0.0585714"/>
<defs>
<filter id="filter0_dddddd_500_274" x="0.0300007" y="0.337618" width="58.3687" height="58.3687" filterUnits="userSpaceOnUse" color-interpolation-filters="sRGB">
<feFlood flood-opacity="0" result="BackgroundImageFix"/>
<feColorMatrix in="SourceAlpha" type="matrix" values="0 0 0 0 0 0 0 0 0 0 0 0 0 0 0 0 0 0 127 0" result="hardAlpha"/>
<feOffset/>
<feGaussianBlur stdDeviation="0.33"/>
<feColorMatrix type="matrix" values="0 0 0 0 0.764706 0 0 0 0 0.403922 0 0 0 0 0.0941176 0 0 0 1 0"/>
<feBlend mode="normal" in2="BackgroundImageFix" result="effect1_dropShadow_500_274"/>
<feColorMatrix in="SourceAlpha" type="matrix" values="0 0 0 0 0 0 0 0 0 0 0 0 0 0 0 0 0 0 127 0" result="hardAlpha"/>
<feOffset/>
<feGaussianBlur stdDeviation="0.66"/>
<feColorMatrix type="matrix" values="0 0 0 0 0.858824 0 0 0 0 0.45098 0 0 0 0 0.0941176 0 0 0 1 0"/>
<feBlend mode="normal" in2="effect1_dropShadow_500_274" result="effect2_dropShadow_500_274"/>
<feColorMatrix in="SourceAlpha" type="matrix" values="0 0 0 0 0 0 0 0 0 0 0 0 0 0 0 0 0 0 127 0" result="hardAlpha"/>
<feOffset/>
<feGaussianBlur stdDeviation="2.31"/>
<feColorMatrix type="matrix" values="0 0 0 0 0.858824 0 0 0 0 0.45098 0 0 0 0 0.0941176 0 0 0 1 0"/>
<feBlend mode="normal" in2="effect2_dropShadow_500_274" result="effect3_dropShadow_500_274"/>
<feColorMatrix in="SourceAlpha" type="matrix" values="0 0 0 0 0 0 0 0 0 0 0 0 0 0 0 0 0 0 127 0" result="hardAlpha"/>
<feOffset/>
<feGaussianBlur stdDeviation="4.62"/>
<feColorMatrix type="matrix" values="0 0 0 0 0.858824 0 0 0 0 0.45098 0 0 0 0 0.0941176 0 0 0 1 0"/>
<feBlend mode="normal" in2="effect3_dropShadow_500_274" result="effect4_dropShadow_500_274"/>
<feColorMatrix in="SourceAlpha" type="matrix" values="0 0 0 0 0 0 0 0 0 0 0 0 0 0 0 0 0 0 127 0" result="hardAlpha"/>
<feOffset/>
<feGaussianBlur stdDeviation="7.92"/>
<feColorMatrix type="matrix" values="0 0 0 0 0.858824 0 0 0 0 0.45098 0 0 0 0 0.0941176 0 0 0 1 0"/>
<feBlend mode="normal" in2="effect4_dropShadow_500_274" result="effect5_dropShadow_500_274"/>
<feColorMatrix in="SourceAlpha" type="matrix" values="0 0 0 0 0 0 0 0 0 0 0 0 0 0 0 0 0 0 127 0" result="hardAlpha"/>
<feOffset/>
<feGaussianBlur stdDeviation="13.86"/>
<feColorMatrix type="matrix" values="0 0 0 0 0.858824 0 0 0 0 0.45098 0 0 0 0 0.0941176 0 0 0 1 0"/>
<feBlend mode="normal" in2="effect5_dropShadow_500_274" result="effect6_dropShadow_500_274"/>
<feBlend mode="normal" in="SourceGraphic" in2="effect6_dropShadow_500_274" result="shape"/>
</filter>
</defs>
</svg>
