<svg width="24" height="25" viewBox="0 0 24 25" fill="none" xmlns="http://www.w3.org/2000/svg">
<g id="mdi:instagram">
<path id="Vector" d="M7.8 2.90088H16.2C19.4 2.90088 22 5.50088 22 8.70088V17.1009C22 18.6391 21.3889 20.1144 20.3012 21.2021C19.2135 22.2898 17.7383 22.9009 16.2 22.9009H7.8C4.6 22.9009 2 20.3009 2 17.1009V8.70088C2 7.16262 2.61107 5.68737 3.69878 4.59966C4.78649 3.51195 6.26174 2.90088 7.8 2.90088ZM7.6 4.90088C6.64522 4.90088 5.72955 5.28016 5.05442 5.95529C4.37928 6.63043 4 7.5461 4 8.50088V17.3009C4 19.2909 5.61 20.9009 7.6 20.9009H16.4C17.3548 20.9009 18.2705 20.5216 18.9456 19.8465C19.6207 19.1713 20 18.2557 20 17.3009V8.50088C20 6.51088 18.39 4.90088 16.4 4.90088H7.6ZM17.25 6.40088C17.5815 6.40088 17.8995 6.53257 18.1339 6.767C18.3683 7.00142 18.5 7.31936 18.5 7.65088C18.5 7.9824 18.3683 8.30034 18.1339 8.53476C17.8995 8.76918 17.5815 8.90088 17.25 8.90088C16.9185 8.90088 16.6005 8.76918 16.3661 8.53476C16.1317 8.30034 16 7.9824 16 7.65088C16 7.31936 16.1317 7.00142 16.3661 6.767C16.6005 6.53257 16.9185 6.40088 17.25 6.40088ZM12 7.90088C13.3261 7.90088 14.5979 8.42766 15.5355 9.36535C16.4732 10.303 17 11.5748 17 12.9009C17 14.227 16.4732 15.4987 15.5355 16.4364C14.5979 17.3741 13.3261 17.9009 12 17.9009C10.6739 17.9009 9.40215 17.3741 8.46447 16.4364C7.52678 15.4987 7 14.227 7 12.9009C7 11.5748 7.52678 10.303 8.46447 9.36535C9.40215 8.42766 10.6739 7.90088 12 7.90088ZM12 9.90088C11.2044 9.90088 10.4413 10.2169 9.87868 10.7796C9.31607 11.3422 9 12.1052 9 12.9009C9 13.6965 9.31607 14.4596 9.87868 15.0222C10.4413 15.5848 11.2044 15.9009 12 15.9009C12.7956 15.9009 13.5587 15.5848 14.1213 15.0222C14.6839 14.4596 15 13.6965 15 12.9009C15 12.1052 14.6839 11.3422 14.1213 10.7796C13.5587 10.2169 12.7956 9.90088 12 9.90088Z" fill="#FAFFFD"/>
</g>
</svg>
