<svg width="44" height="44" viewBox="0 0 44 44" fill="none" xmlns="http://www.w3.org/2000/svg">
<path d="M10.9998 11L14.6665 7.33329M14.6665 7.33329L10.9998 3.66663M14.6665 7.33329H10.9998C6.94975 7.33329 3.6665 10.6165 3.6665 14.6666M32.9998 33L29.3332 36.6666M29.3332 36.6666L32.9998 40.3333M29.3332 36.6666H32.9998C37.0499 36.6666 40.3332 33.3834 40.3332 29.3333M18.6797 11.9166C19.9008 7.17225 24.2076 3.66663 29.3332 3.66663C35.4083 3.66663 40.3332 8.59149 40.3332 14.6666C40.3332 19.7921 36.8276 24.0989 32.0833 25.32M25.6665 29.3333C25.6665 35.4084 20.7416 40.3333 14.6665 40.3333C8.59137 40.3333 3.6665 35.4084 3.6665 29.3333C3.6665 23.2582 8.59137 18.3333 14.6665 18.3333C20.7416 18.3333 25.6665 23.2582 25.6665 29.3333Z" stroke="white" stroke-width="2.5" stroke-linecap="round" stroke-linejoin="round"/>
</svg>
