<svg width="24" height="25" viewBox="0 0 24 25" fill="none" xmlns="http://www.w3.org/2000/svg">
<g id="ri:twitter-line">
<path id="Vector" d="M15.3498 6.45099C14.5899 6.45086 13.8604 6.74897 13.318 7.2812C12.7757 7.81343 12.4639 8.53726 12.4498 9.29699L12.4218 10.872C12.4203 10.9566 12.4009 11.04 12.3649 11.1166C12.3289 11.1933 12.277 11.2614 12.2128 11.3165C12.1486 11.3717 12.0734 11.4126 11.9922 11.4367C11.9111 11.4607 11.8257 11.4673 11.7418 11.456L10.1798 11.243C8.1268 10.963 6.1588 10.018 4.2698 8.44499C3.6728 11.755 4.8398 14.048 7.6528 15.817L9.3998 16.915C9.48266 16.9671 9.55152 17.0387 9.60035 17.1236C9.64919 17.2084 9.67652 17.3039 9.67998 17.4017C9.68343 17.4996 9.66289 17.5967 9.62016 17.6848C9.57742 17.7729 9.51379 17.8492 9.4348 17.907L7.8428 19.071C8.7898 19.131 9.6888 19.089 10.4348 18.941C15.1528 17.999 18.2898 14.449 18.2898 8.59299C18.2898 8.11499 17.2768 6.45099 15.3498 6.45099ZM10.4498 9.26099C10.4673 8.29704 10.7687 7.35966 11.3164 6.56622C11.864 5.77277 12.6336 5.15851 13.5287 4.80036C14.4238 4.44221 15.4047 4.35607 16.3485 4.55274C17.2924 4.74941 18.1572 5.22014 18.8348 5.90599C19.5458 5.90099 20.1508 6.08099 21.5028 5.25999C21.1688 6.89999 21.0028 7.61299 20.2898 8.59199C20.2898 16.233 15.5928 19.95 10.8258 20.901C7.5588 21.553 2.8058 20.482 1.4458 19.059C2.1388 19.006 4.9588 18.703 6.5888 17.509C5.2088 16.599 -0.279199 13.369 3.3278 4.68699C5.0208 6.66399 6.7378 8.00899 8.4778 8.72399C9.6348 9.19899 9.9198 9.18899 10.4508 9.26199L10.4498 9.26099Z" fill="#FAFFFD"/>
</g>
</svg>
