<svg width="102" height="18" viewBox="0 0 102 18" fill="none" xmlns="http://www.w3.org/2000/svg">
<g clip-path="url(#clip0_927_215)">
<path d="M20.7022 5.02526C17.0417 5.02526 14.1815 7.80406 14.1815 11.5241C14.1815 15.2441 16.9694 17.9991 20.7022 17.9991C24.4351 17.9991 27.2715 15.1965 27.2715 11.5003C27.2715 7.82784 24.4835 5.02526 20.7022 5.02526ZM20.7269 15.3182C18.6424 15.3182 17.1149 13.6992 17.1149 11.525C17.1149 9.32608 18.6177 7.70801 20.7022 7.70801C22.8115 7.70801 24.3381 9.35078 24.3381 11.525C24.3381 13.6992 22.8115 15.3182 20.7269 15.3182ZM28.0709 7.85253H29.8893V17.7585H32.798V5.26673H28.0709V7.85253ZM6.8613 7.7071C8.38881 7.7071 9.60077 8.64922 10.0608 10.0505H13.1397C12.5817 7.05493 10.1093 5.02526 6.88599 5.02526C3.22544 5.02526 0.365234 7.80406 0.365234 11.525C0.365234 15.2459 3.15318 18 6.88599 18C10.0371 18 12.5579 15.9703 13.1159 12.95H10.0608C9.62455 14.3513 8.41259 15.3182 6.88508 15.3182C4.77582 15.3182 3.2977 13.6992 3.2977 11.525C3.29862 9.32608 4.75296 7.7071 6.8613 7.7071ZM83.3377 10.3167L81.2047 10.0029C80.1867 9.85843 79.4595 9.52 79.4595 8.72239C79.4595 7.85253 80.4053 7.41806 81.6895 7.41806C83.0954 7.41806 83.9927 8.02175 84.1866 9.01235H86.9983C86.6827 6.49972 84.7436 5.02617 81.7627 5.02617C78.6839 5.02617 76.6478 6.59668 76.6478 8.81935C76.6478 10.9451 77.9814 12.1781 80.6714 12.5641L82.8045 12.8778C83.8472 13.0223 84.429 13.4339 84.429 14.2068C84.429 15.1974 83.4109 15.6081 82.0051 15.6081C80.2836 15.6081 79.3141 14.9075 79.1686 13.8446H76.3084C76.5755 16.285 78.4899 18 81.9804 18C85.1561 18 87.2645 16.5502 87.2645 14.0614C87.2645 11.8387 85.7379 10.6789 83.3377 10.3167ZM31.3436 0.120738C30.2771 0.120738 29.4768 0.893643 29.4768 1.9565C29.4768 3.01936 30.2762 3.79227 31.3436 3.79227C32.4102 3.79227 33.2105 3.01936 33.2105 1.9565C33.2105 0.893643 32.4102 0.120738 31.3436 0.120738ZM74.03 9.54378C74.03 6.83815 72.3817 5.02617 68.8913 5.02617C65.5948 5.02617 63.7526 6.69363 63.3886 9.25474H66.2735C66.4189 8.26414 67.1945 7.44276 68.8428 7.44276C70.3218 7.44276 71.049 8.09492 71.049 8.89253C71.049 9.9316 69.7154 10.1969 68.0672 10.3661C65.8372 10.6076 63.0739 11.3805 63.0739 14.28C63.0739 16.5274 64.7469 17.9762 67.4132 17.9762C69.4977 17.9762 70.8066 17.1064 71.4615 15.7288C71.5585 16.9609 72.4796 17.7585 73.7647 17.7585H75.4614V15.1736H74.0309V9.54378H74.03ZM71.1698 12.6848C71.1698 14.3523 69.7154 15.5843 67.9455 15.5843C66.8543 15.5843 65.9332 15.1252 65.9332 14.1593C65.9332 12.9272 67.4122 12.5887 68.7696 12.4442C70.0785 12.3235 70.8057 12.0335 71.1698 11.4774V12.6848ZM55.729 5.02526C54.1046 5.02526 52.7472 5.70212 51.7776 6.83724V0H48.8689V17.7585H51.7291V16.1158C52.6987 17.2994 54.0808 18 55.729 18C59.2194 18 61.862 15.2459 61.862 11.525C61.862 7.80406 59.171 5.02526 55.729 5.02526ZM55.2927 15.3182C53.2082 15.3182 51.6806 13.6992 51.6806 11.525C51.6806 9.35078 53.2319 7.70801 55.3165 7.70801C57.4258 7.70801 58.9039 9.327 58.9039 11.525C58.9039 13.6992 57.3773 15.3182 55.2927 15.3182ZM41.9119 5.02526C40.0212 5.02526 38.7846 5.79816 38.0574 6.88572V5.26673H35.1725V17.7576H38.0812V10.9689C38.0812 9.05991 39.2931 7.7071 41.0868 7.7071C42.7598 7.7071 43.8016 8.8907 43.8016 10.6066V17.7585H46.7103V10.3899C46.7112 7.24793 45.0876 5.02526 41.9119 5.02526ZM101.13 11.1143C101.13 7.5388 98.5123 5.02617 94.9972 5.02617C91.2644 5.02617 88.5249 7.82875 88.5249 11.525C88.5249 15.4151 91.4583 18 95.0457 18C98.076 18 100.451 16.2118 101.057 13.6754H98.0266C97.5903 14.7867 96.5238 15.4151 95.0932 15.4151C93.2264 15.4151 91.8205 14.2553 91.5058 12.2256H101.129V11.1143H101.13ZM91.676 10.1475C92.137 8.40774 93.4459 7.56258 94.9487 7.56258C96.597 7.56258 97.8574 8.5047 98.1483 10.1475H91.676Z" fill="white"/>
</g>
<defs>
<clipPath id="clip0_927_215">
<rect width="100.765" height="18" fill="white" transform="translate(0.365234)"/>
</clipPath>
</defs>
</svg>
