<svg width="44" height="44" viewBox="0 0 44 44" fill="none" xmlns="http://www.w3.org/2000/svg">
<path d="M21.9998 31.1667C21.9998 36.2293 26.1039 40.3333 31.1665 40.3333C36.2291 40.3333 40.3332 36.2293 40.3332 31.1667C40.3332 26.1041 36.2291 22 31.1665 22C26.1039 22 21.9998 26.1041 21.9998 31.1667ZM21.9998 31.1667C21.9998 29.1027 22.682 27.198 23.8332 25.6658V9.16667M21.9998 31.1667C21.9998 32.6798 22.3665 34.1073 23.0157 35.3652C21.4712 36.6699 17.9039 37.5833 13.7498 37.5833C8.18097 37.5833 3.6665 35.9417 3.6665 33.9167V9.16667M23.8332 9.16667C23.8332 11.1917 19.3187 12.8333 13.7498 12.8333C8.18097 12.8333 3.6665 11.1917 3.6665 9.16667M23.8332 9.16667C23.8332 7.14162 19.3187 5.5 13.7498 5.5C8.18097 5.5 3.6665 7.14162 3.6665 9.16667M3.6665 25.6667C3.6665 27.6917 8.18097 29.3333 13.7498 29.3333C17.763 29.3333 21.2286 28.4808 22.8517 27.2466M23.8332 17.4167C23.8332 19.4417 19.3187 21.0833 13.7498 21.0833C8.18097 21.0833 3.6665 19.4417 3.6665 17.4167" stroke="white" stroke-width="2.5" stroke-linecap="round" stroke-linejoin="round"/>
</svg>
