<svg width="24" height="25" viewBox="0 0 24 25" fill="none" xmlns="http://www.w3.org/2000/svg">
<g id="ic:outline-whatsapp">
<path id="Vector" d="M19.0498 5.81094C18.133 4.88486 17.041 4.15061 15.8374 3.65099C14.6339 3.15137 13.3429 2.8964 12.0398 2.90094C6.5798 2.90094 2.1298 7.35094 2.1298 12.8109C2.1298 14.5609 2.5898 16.2609 3.4498 17.7609L2.0498 22.9009L7.2998 21.5209C8.7498 22.3109 10.3798 22.7309 12.0398 22.7309C17.4998 22.7309 21.9498 18.2809 21.9498 12.8209C21.9498 10.1709 20.9198 7.68094 19.0498 5.81094ZM12.0398 21.0509C10.5598 21.0509 9.1098 20.6509 7.8398 19.9009L7.5398 19.7209L4.4198 20.5409L5.2498 17.5009L5.0498 17.1909C4.22755 15.8779 3.79094 14.3602 3.7898 12.8109C3.7898 8.27094 7.4898 4.57094 12.0298 4.57094C14.2298 4.57094 16.2998 5.43094 17.8498 6.99094C18.6173 7.7549 19.2255 8.6636 19.6392 9.66436C20.0529 10.6651 20.2638 11.738 20.2598 12.8209C20.2798 17.3609 16.5798 21.0509 12.0398 21.0509ZM16.5598 14.8909C16.3098 14.7709 15.0898 14.1709 14.8698 14.0809C14.6398 14.0009 14.4798 13.9609 14.3098 14.2009C14.1398 14.4509 13.6698 15.0109 13.5298 15.1709C13.3898 15.3409 13.2398 15.3609 12.9898 15.2309C12.7398 15.1109 11.9398 14.8409 10.9998 14.0009C10.2598 13.3409 9.7698 12.5309 9.6198 12.2809C9.4798 12.0309 9.5998 11.9009 9.7298 11.7709C9.8398 11.6609 9.9798 11.4809 10.0998 11.3409C10.2198 11.2009 10.2698 11.0909 10.3498 10.9309C10.4298 10.7609 10.3898 10.6209 10.3298 10.5009C10.2698 10.3809 9.7698 9.16094 9.5698 8.66094C9.3698 8.18094 9.1598 8.24094 9.0098 8.23094H8.5298C8.3598 8.23094 8.0998 8.29094 7.8698 8.54094C7.6498 8.79094 7.0098 9.39094 7.0098 10.6109C7.0098 11.8309 7.89981 13.0109 8.0198 13.1709C8.1398 13.3409 9.7698 15.8409 12.2498 16.9109C12.8398 17.1709 13.2998 17.3209 13.6598 17.4309C14.2498 17.6209 14.7898 17.5909 15.2198 17.5309C15.6998 17.4609 16.6898 16.9309 16.8898 16.3509C17.0998 15.7709 17.0998 15.2809 17.0298 15.1709C16.9598 15.0609 16.8098 15.0109 16.5598 14.8909Z" fill="#FAFFFD"/>
</g>
</svg>
