<svg width="24" height="25" viewBox="0 0 24 25" fill="none" xmlns="http://www.w3.org/2000/svg">
<g id="mail-05" clip-path="url(#clip0_508_370)">
<path id="Icon" d="M13.744 2.73014L21.272 7.62335C21.538 7.79625 21.671 7.8827 21.7674 7.99802C21.8527 8.1001 21.9167 8.21817 21.9558 8.34533C22 8.48897 22 8.6476 22 8.96486V16.2966C22 17.9767 22 18.8168 21.673 19.4585C21.3854 20.023 20.9265 20.482 20.362 20.7696C19.7202 21.0966 18.8802 21.0966 17.2 21.0966H6.8C5.11984 21.0966 4.27976 21.0966 3.63803 20.7696C3.07354 20.482 2.6146 20.023 2.32698 19.4585C2 18.8168 2 17.9767 2 16.2966V8.96486C2 8.6476 2 8.48897 2.04417 8.34533C2.08327 8.21817 2.14735 8.1001 2.23265 7.99802C2.32901 7.8827 2.46201 7.79625 2.72802 7.62335L10.256 2.73014M13.744 2.73014C13.1127 2.31983 12.7971 2.11467 12.457 2.03485C12.1564 1.96429 11.8436 1.96429 11.543 2.03485C11.2029 2.11467 10.8873 2.31983 10.256 2.73014M13.744 2.73014L19.9361 6.75505C20.624 7.20215 20.9679 7.4257 21.087 7.7092C21.1911 7.95695 21.1911 8.23617 21.087 8.48392C20.9679 8.76742 20.624 8.99097 19.9361 9.43807L13.744 13.463C13.1127 13.8733 12.7971 14.0784 12.457 14.1583C12.1564 14.2288 11.8436 14.2288 11.543 14.1583C11.2029 14.0784 10.8873 13.8733 10.256 13.463L4.06386 9.43807C3.37601 8.99097 3.03209 8.76742 2.91297 8.48392C2.80888 8.23617 2.80888 7.95695 2.91297 7.7092C3.03209 7.4257 3.37601 7.20215 4.06386 6.75505L10.256 2.73014M21.5 19.0966L14.8572 13.0966M9.14282 13.0966L2.5 19.0966" stroke="white" stroke-width="2" stroke-linecap="round" stroke-linejoin="round"/>
</g>
<defs>
<clipPath id="clip0_508_370">
<rect width="24" height="24" fill="white" transform="translate(0 0.0966797)"/>
</clipPath>
</defs>
</svg>
