<svg width="37" height="36" viewBox="0 0 37 36" fill="none" xmlns="http://www.w3.org/2000/svg">
<path d="M20 7.5C20 9.15685 16.3063 10.5 11.75 10.5C7.19365 10.5 3.5 9.15685 3.5 7.5M20 7.5C20 5.84315 16.3063 4.5 11.75 4.5C7.19365 4.5 3.5 5.84315 3.5 7.5M20 7.5V14.1857C18.1677 14.736 17 15.5684 17 16.5M3.5 7.5V25.5C3.5 27.1569 7.19365 28.5 11.75 28.5C13.7444 28.5 15.5736 28.2426 17 27.8143V16.5M3.5 13.5C3.5 15.1569 7.19365 16.5 11.75 16.5C13.7444 16.5 15.5736 16.2426 17 15.8143M3.5 19.5C3.5 21.1569 7.19365 22.5 11.75 22.5C13.7444 22.5 15.5736 22.2426 17 21.8143M33.5 16.5C33.5 18.1569 29.8063 19.5 25.25 19.5C20.6937 19.5 17 18.1569 17 16.5M33.5 16.5C33.5 14.8431 29.8063 13.5 25.25 13.5C20.6937 13.5 17 14.8431 17 16.5M33.5 16.5V28.5C33.5 30.1569 29.8063 31.5 25.25 31.5C20.6937 31.5 17 30.1569 17 28.5V16.5M33.5 22.5C33.5 24.1569 29.8063 25.5 25.25 25.5C20.6937 25.5 17 24.1569 17 22.5" stroke="white" stroke-width="2.5" stroke-linecap="round" stroke-linejoin="round"/>
</svg>
